<svg width="16" height="17" viewBox="0 0 16 17" fill="none" xmlns="http://www.w3.org/2000/svg">
<path d="M6.47664 8.50016C7.24398 8.50016 7.80998 7.93416 7.80998 7.16683C7.80998 6.3995 7.24398 5.8335 6.47664 5.8335C5.70931 5.8335 5.14331 6.3995 5.14331 7.16683C5.14331 7.93416 5.70864 8.50016 6.47664 8.50016Z" fill="#A2A0A0"/>
<path d="M13.3333 3.1665H2.66659C1.93125 3.1665 1.33325 3.72717 1.33325 4.4165V12.5832C1.33325 13.2725 1.93125 13.8332 2.66659 13.8332H13.3333C14.0686 13.8332 14.6666 13.2725 14.6666 12.5832V4.4165C14.6666 3.72717 14.0686 3.1665 13.3333 3.1665ZM13.3333 12.4998L2.66659 12.4925V4.49984L13.3333 4.50717V12.4998Z" fill="#A2A0A0"/>
<path d="M9.33333 6.5H12V7.83333H9.33333V6.5ZM10 9.16667H12V10.5H10V9.16667ZM8.95333 10.8573C8.95333 9.94133 7.836 9 6.47667 9C5.11733 9 4 9.94133 4 10.8573V11.1667H8.95333V10.8573Z" fill="#A2A0A0"/>
</svg>
