<svg width="32" height="32" viewBox="0 0 32 32" fill="none" xmlns="http://www.w3.org/2000/svg">
<path d="M30 24C30 22.8133 29.6481 21.6533 28.9888 20.6666C28.3295 19.6799 27.3925 18.9108 26.2961 18.4567C25.1997 18.0026 23.9933 17.8838 22.8295 18.1153C21.6656 18.3468 20.5965 18.9182 19.7574 19.7574C18.9182 20.5965 18.3468 21.6656 18.1153 22.8295C17.8838 23.9933 18.0026 25.1997 18.4567 26.2961C18.9108 27.3925 19.6799 28.3295 20.6666 28.9888C21.6533 29.6481 22.8133 30 24 30C25.5907 29.9981 27.1158 29.3654 28.2406 28.2406C29.3654 27.1158 29.9981 25.5907 30 24ZM28 24C27.9963 24.7118 27.8004 25.4093 27.433 26.019L21.981 20.567C22.5907 20.1997 23.2882 20.0038 24 20C25.0605 20.0013 26.0771 20.4232 26.827 21.173C27.5768 21.9229 27.9987 22.9395 28 24ZM20 24C20.0037 23.2882 20.1996 22.5907 20.567 21.981L26.019 27.433C25.4093 27.8003 24.7118 27.9962 24 28C22.9395 27.9987 21.9229 27.5768 21.173 26.827C20.4232 26.0771 20.0013 25.0605 20 24ZM8 16H18V18H8V16ZM8 10H20V12H8V10Z" fill="#A0041E"/>
<path d="M14 27.733L8.76601 24.943C7.32521 24.1766 6.12031 23.0323 5.28066 21.6329C4.441 20.2336 3.99827 18.632 4.00001 17V4H24V15H26V4C25.9995 3.46973 25.7886 2.96133 25.4136 2.58637C25.0387 2.21141 24.5303 2.00053 24 2H4.00001C3.46974 2.00053 2.96134 2.21141 2.58638 2.58637C2.21142 2.96133 2.00054 3.46973 2.00001 4V17C1.99778 18.9943 2.53873 20.9517 3.56478 22.6618C4.59084 24.372 6.06327 25.7704 7.82401 26.707L14 30V27.733Z" fill="#A0041E"/>
</svg>
