<svg width="26" height="26" viewBox="0 0 26 26" fill="none" xmlns="http://www.w3.org/2000/svg">
<g clip-path="url(#clip0_1_606)">
<path d="M6.93312 13L12.1331 17.3334L19.0665 8.6667M12.9998 25.1334C11.4064 25.1334 9.82865 24.8195 8.35656 24.2098C6.88448 23.6 5.54691 22.7063 4.42023 21.5796C3.29354 20.4529 2.39981 19.1153 1.79005 17.6433C1.18029 16.1712 0.866455 14.5934 0.866455 13C0.866455 11.4067 1.18029 9.82889 1.79005 8.35681C2.39981 6.88472 3.29354 5.54715 4.42023 4.42047C5.54691 3.29379 6.88448 2.40005 8.35656 1.79029C9.82865 1.18054 11.4064 0.866699 12.9998 0.866699C16.2177 0.866699 19.3039 2.14503 21.5794 4.42047C23.8548 6.69591 25.1331 9.78207 25.1331 13C25.1331 16.218 23.8548 19.3042 21.5794 21.5796C19.3039 23.855 16.2177 25.1334 12.9998 25.1334Z" stroke="#28A745" stroke-width="1.73333"/>
</g>
<defs>
<clipPath id="clip0_1_606">
<rect width="26" height="26" fill="white"/>
</clipPath>
</defs>
</svg>
