<svg width="14" height="15" viewBox="0 0 14 15" fill="none" xmlns="http://www.w3.org/2000/svg">
<path d="M13 0.5H1C0.734865 0.500265 0.480665 0.605707 0.293186 0.793186C0.105707 0.980665 0.000264738 1.23486 0 1.5V13.5C0.000264738 13.7651 0.105707 14.0193 0.293186 14.2068C0.480665 14.3943 0.734865 14.4997 1 14.5H13C13.2651 14.4996 13.5192 14.3941 13.7067 14.2067C13.8941 14.0192 13.9996 13.7651 14 13.5V1.5C13.9997 1.23486 13.8943 0.980665 13.7068 0.793186C13.5193 0.605707 13.2651 0.500265 13 0.5ZM13 5H6V1.5H13V5ZM5 1.5V5H1V1.5H5ZM1 13.5V6H13L13.001 13.5H1Z" fill="#1A411D"/>
</svg>
