<svg width="16" height="17" viewBox="0 0 16 17" fill="none" xmlns="http://www.w3.org/2000/svg">
<path d="M6.33333 10.25C6.33333 10.02 6.52 9.83333 6.75 9.83333H9.25C9.36051 9.83333 9.46649 9.87723 9.54463 9.95537C9.62277 10.0335 9.66667 10.1395 9.66667 10.25C9.66667 10.3605 9.62277 10.4665 9.54463 10.5446C9.46649 10.6228 9.36051 10.6667 9.25 10.6667H6.75C6.52 10.6667 6.33333 10.48 6.33333 10.25ZM5.33333 9.16667C5.33333 9.34348 5.2631 9.51305 5.13807 9.63807C5.01305 9.7631 4.84348 9.83333 4.66667 9.83333C4.48986 9.83333 4.32029 9.7631 4.19526 9.63807C4.07024 9.51305 4 9.34348 4 9.16667C4 8.98986 4.07024 8.82029 4.19526 8.69526C4.32029 8.57024 4.48986 8.5 4.66667 8.5C4.84348 8.5 5.01305 8.57024 5.13807 8.69526C5.2631 8.82029 5.33333 8.98986 5.33333 9.16667ZM11.3333 9.83333C11.5101 9.83333 11.6797 9.7631 11.8047 9.63807C11.9298 9.51305 12 9.34348 12 9.16667C12 8.98986 11.9298 8.82029 11.8047 8.69526C11.6797 8.57024 11.5101 8.5 11.3333 8.5C11.1565 8.5 10.987 8.57024 10.8619 8.69526C10.7369 8.82029 10.6667 8.98986 10.6667 9.16667C10.6667 9.34348 10.7369 9.51305 10.8619 9.63807C10.987 9.7631 11.1565 9.83333 11.3333 9.83333ZM2.92167 6.589L3.066 6H2.41667C2.30616 6 2.20018 5.9561 2.12204 5.87796C2.0439 5.79982 2 5.69384 2 5.58333C2 5.47283 2.0439 5.36685 2.12204 5.28871C2.20018 5.21057 2.30616 5.16667 2.41667 5.16667H3.27L3.53433 4.08767C3.64527 3.63477 3.90493 3.23219 4.27176 2.94435C4.6386 2.6565 5.09138 2.50004 5.55767 2.5H10.3267C10.7794 2.50004 11.2197 2.64753 11.5811 2.92016C11.9425 3.19279 12.2053 3.57572 12.3297 4.011L12.6597 5.16667H13.5837C13.6384 5.16667 13.6926 5.17744 13.7431 5.19838C13.7937 5.21932 13.8396 5.25001 13.8783 5.28871C13.917 5.3274 13.9477 5.37333 13.9686 5.42388C13.9896 5.47443 14.0003 5.52862 14.0003 5.58333C14.0003 5.63805 13.9896 5.69223 13.9686 5.74278C13.9477 5.79334 13.917 5.83927 13.8783 5.87796C13.8396 5.91665 13.7937 5.94734 13.7431 5.96828C13.6926 5.98922 13.6384 6 13.5837 6H12.898L13.0647 6.58367C13.3387 6.68276 13.5755 6.86391 13.7429 7.10243C13.9102 7.34096 14 7.62528 14 7.91667V13.75C14 14.0373 13.8859 14.3129 13.6827 14.516C13.4795 14.7192 13.204 14.8333 12.9167 14.8333H11.75C11.4627 14.8333 11.1871 14.7192 10.984 14.516C10.7808 14.3129 10.6667 14.0373 10.6667 13.75V12.6667H5.33333V13.75C5.33333 14.0373 5.2192 14.3129 5.01603 14.516C4.81287 14.7192 4.53732 14.8333 4.25 14.8333H3.08333C2.79602 14.8333 2.52047 14.7192 2.3173 14.516C2.11414 14.3129 2 14.0373 2 13.75V7.91667C2.00003 7.62781 2.08832 7.34587 2.25305 7.10859C2.41777 6.8713 2.65105 6.69002 2.92167 6.589ZM4.34367 4.286L3.80133 6.5H12.1737L11.528 4.24C11.4534 3.97879 11.2957 3.74899 11.0788 3.5854C10.8619 3.4218 10.5977 3.33332 10.326 3.33333H5.558C5.27822 3.33336 5.00654 3.42725 4.78644 3.59997C4.56634 3.77269 4.41055 4.01425 4.344 4.286H4.34367ZM3.41667 7.33333C3.26196 7.33333 3.11358 7.39479 3.00419 7.50419C2.89479 7.61358 2.83333 7.76196 2.83333 7.91667V11.8333H13.1667V7.91667C13.1667 7.76196 13.1052 7.61358 12.9958 7.50419C12.8864 7.39479 12.738 7.33333 12.5833 7.33333H3.41667ZM11.5 13.75C11.5 13.888 11.612 14 11.75 14H12.9167C12.983 14 13.0466 13.9737 13.0934 13.9268C13.1403 13.8799 13.1667 13.8163 13.1667 13.75V12.6667H11.5V13.75ZM2.83333 12.6667V13.75C2.83333 13.888 2.94533 14 3.08333 14H4.25C4.3163 14 4.37989 13.9737 4.42678 13.9268C4.47366 13.8799 4.5 13.8163 4.5 13.75V12.6667H2.83333Z" fill="#A2A0A0"/>
</svg>
