<svg width="37" height="24" viewBox="0 0 37 24" fill="none" xmlns="http://www.w3.org/2000/svg">
<path d="M13.061 0.517005C16.5425 0.517005 20.0219 0.50345 23.5097 0.517005C25.4552 0.528301 25.846 0.955287 26.5168 2.92301C26.6756 3.39066 27.3987 3.86282 27.9023 3.91929C29.2142 4.03005 30.5313 4.05043 31.8456 3.9803C33.0054 3.95093 33.8058 4.4005 34.184 5.62948C34.335 6.15294 34.5404 6.65619 34.7963 7.12956C36.8108 10.6516 36.5141 14.5509 36.4138 18.4253C36.3845 19.4917 35.8725 20.1604 34.9238 20.5715C34.3524 20.8234 33.8441 21.2173 33.4401 21.7214C31.7683 23.8586 29.4821 23.818 27.7978 21.6763C27.3924 21.1634 26.6234 20.7071 26.0153 20.6958C21.2186 20.6114 16.422 20.6062 11.6253 20.68C11.0131 20.68 10.244 21.1318 9.83026 21.6514C8.04772 23.8586 5.83051 23.845 4.08558 21.6514C3.64047 21.0911 2.77323 20.7478 2.05227 20.6393C0.434818 20.3795 0.148525 20.1739 0.144345 18.4253C0.1332 13.2308 0.1332 8.03473 0.144345 2.83716C0.144345 1.05017 0.57692 0.544113 2.2508 0.528298C5.85768 0.489893 9.46665 0.514744 13.0756 0.514744L13.061 0.517005ZM13.1509 2.32433C9.75991 2.32433 6.36827 2.32433 2.97594 2.32433C2.02302 2.32433 1.28743 2.5751 1.28952 3.81989C1.28952 8.32465 1.26653 12.8294 1.32296 17.3319C1.32296 17.8018 1.7409 18.579 2.08571 18.658C2.61859 18.7845 3.26223 18.4773 3.82855 18.2672C4.03752 18.1904 4.14201 17.8515 4.3071 17.6437C5.78872 15.7731 8.30894 15.7844 9.67771 17.7589C10.2315 18.5564 10.8501 18.8275 11.7194 18.823C15.3639 18.8004 19.0105 18.823 22.6571 18.823C24.5629 18.823 24.728 18.6467 24.7363 16.5299C24.7551 12.5267 24.751 8.52346 24.7572 4.51798C24.7572 2.59092 24.5483 2.34466 22.6905 2.33562C19.512 2.31303 16.3314 2.32433 13.1509 2.32433ZM34.2843 18.6784C34.4599 18.3937 34.6626 18.2265 34.6647 18.0368C34.6647 15.3371 35.1892 12.6148 34.0566 9.98738C31.9083 5.01724 33.1998 6.00676 27.9441 5.87121C26.8846 5.8441 26.5126 6.37049 26.5147 7.43003C26.5147 10.7013 26.4834 13.9816 26.5147 17.2461C26.5147 17.7182 26.7508 18.1881 26.9138 18.7958C29.921 15.3664 31.4277 15.4862 34.2843 18.6784ZM6.96733 18.1452C6.05202 18.2695 5.41674 18.7439 5.43137 19.7718C5.446 20.7636 6.02068 21.3848 6.94434 21.3961C7.868 21.4074 8.44268 20.7884 8.45104 19.7854C8.4594 18.7823 7.87845 18.2491 6.96733 18.1452ZM29.1039 19.8283C29.2523 20.8178 29.7747 21.4458 30.7192 21.3939C31.6638 21.3419 32.1988 20.6845 32.1403 19.6634C32.0859 18.7122 31.5238 18.1475 30.6294 18.1768C29.6869 18.1972 29.1603 18.7936 29.1039 19.8283Z" fill="#878787"/>
<path d="M30.2026 11.3496H29.8201C26.8193 11.3496 26.2572 10.6266 26.8485 7.42542C26.8883 7.21097 26.967 7.00714 27.08 6.82568C27.1929 6.64422 27.338 6.48873 27.5068 6.36814C29.9894 5.01265 33.4793 7.22209 33.4605 10.159C33.4605 10.5408 32.8795 11.1508 32.4804 11.2479C31.7552 11.4241 30.9653 11.2976 30.2026 11.2976V11.3496ZM29.9393 9.8382L31.097 8.8758C30.679 8.58663 30.2841 8.08735 29.8619 8.06702C29.4398 8.04668 29.0553 8.54145 28.652 8.80803L29.9393 9.8382Z" fill="#878787"/>
</svg>
