<svg width="16" height="17" viewBox="0 0 16 17" fill="none" xmlns="http://www.w3.org/2000/svg">
<path d="M4 5C3.60444 5 3.21776 4.8827 2.88886 4.66294C2.55996 4.44318 2.30362 4.13082 2.15224 3.76537C2.00087 3.39992 1.96126 2.99778 2.03843 2.60982C2.1156 2.22186 2.30608 1.86549 2.58579 1.58579C2.86549 1.30608 3.22186 1.1156 3.60982 1.03843C3.99778 0.96126 4.39991 1.00087 4.76537 1.15224C5.13082 1.30362 5.44318 1.55996 5.66294 1.88886C5.8827 2.21776 6 2.60444 6 3C6 3.53043 5.78929 4.03914 5.41421 4.41421C5.03914 4.78929 4.53043 5 4 5ZM4 2C3.80222 2 3.60888 2.05865 3.44443 2.16853C3.27998 2.27841 3.15181 2.43459 3.07612 2.61732C3.00043 2.80004 2.98063 3.00111 3.01921 3.19509C3.0578 3.38907 3.15304 3.56726 3.29289 3.70711C3.43275 3.84696 3.61093 3.9422 3.80491 3.98079C3.99889 4.01937 4.19996 3.99957 4.38268 3.92388C4.56541 3.84819 4.72159 3.72002 4.83147 3.55557C4.94135 3.39112 5 3.19778 5 3C5 2.73478 4.89464 2.48043 4.70711 2.29289C4.51957 2.10536 4.26522 2 4 2ZM12 5C11.6044 5 11.2178 4.8827 10.8889 4.66294C10.56 4.44318 10.3036 4.13082 10.1522 3.76537C10.0009 3.39992 9.96126 2.99778 10.0384 2.60982C10.1156 2.22186 10.3061 1.86549 10.5858 1.58579C10.8655 1.30608 11.2219 1.1156 11.6098 1.03843C11.9978 0.96126 12.3999 1.00087 12.7654 1.15224C13.1308 1.30362 13.4432 1.55996 13.6629 1.88886C13.8827 2.21776 14 2.60444 14 3C14 3.53043 13.7893 4.03914 13.4142 4.41421C13.0391 4.78929 12.5304 5 12 5ZM12 2C11.8022 2 11.6089 2.05865 11.4444 2.16853C11.28 2.27841 11.1518 2.43459 11.0761 2.61732C11.0004 2.80004 10.9806 3.00111 11.0192 3.19509C11.0578 3.38907 11.153 3.56726 11.2929 3.70711C11.4327 3.84696 11.6109 3.9422 11.8049 3.98079C11.9989 4.01937 12.2 3.99957 12.3827 3.92388C12.5654 3.84819 12.7216 3.72002 12.8315 3.55557C12.9414 3.39112 13 3.19778 13 3C13 2.73478 12.8946 2.48043 12.7071 2.29289C12.5196 2.10536 12.2652 2 12 2ZM13 15.5H11C10.7348 15.5 10.4804 15.3946 10.2929 15.2071C10.1054 15.0196 10 14.7652 10 14.5V11H11V14.5H13V10H14V7C14 6.86739 13.9473 6.74022 13.8536 6.64645C13.7598 6.55268 13.6326 6.5 13.5 6.5H10.29L8 10.5L5.71 6.5H2.5C2.36739 6.5 2.24021 6.55268 2.14645 6.64645C2.05268 6.74022 2 6.86739 2 7V10H3V14.5H5V11H6V14.5C6 14.7652 5.89464 15.0196 5.70711 15.2071C5.51957 15.3946 5.26522 15.5 5 15.5H3C2.73478 15.5 2.48043 15.3946 2.29289 15.2071C2.10536 15.0196 2 14.7652 2 14.5V11C1.73478 11 1.48043 10.8946 1.29289 10.7071C1.10536 10.5196 1 10.2652 1 10V7C1 6.60218 1.15804 6.22064 1.43934 5.93934C1.72064 5.65804 2.10218 5.5 2.5 5.5H6.29L8 8.5L9.71 5.5H13.5C13.8978 5.5 14.2794 5.65804 14.5607 5.93934C14.842 6.22064 15 6.60218 15 7V10C15 10.2652 14.8946 10.5196 14.7071 10.7071C14.5196 10.8946 14.2652 11 14 11V14.5C14 14.7652 13.8946 15.0196 13.7071 15.2071C13.5196 15.3946 13.2652 15.5 13 15.5Z" fill="#A2A0A0"/>
</svg>
