<svg width="40" height="40" viewBox="0 0 40 40" fill="none" xmlns="http://www.w3.org/2000/svg">
<path d="M25.6744 24.5543C23.706 24.5268 23.0052 23.696 21.146 21.2168C19.2869 18.7376 17.2977 18.8535 16.6177 19.5993C16.051 20.2193 19.3935 27.4968 20.391 28.656C20.8656 29.2294 21.3791 29.7696 21.9277 30.2726C21.9277 30.2726 21.8919 33.7435 21.7844 36.2502M31.0377 35.6368C30.609 33.4807 30.2941 31.3035 30.0944 29.1143C30.1485 28.8443 30.1152 25.2326 30.091 24.3701C30.0669 23.5076 29.151 16.2301 28.531 14.8551C27.911 13.4802 25.6744 11.6743 25.6744 11.6743" stroke="#0872A2" stroke-width="0.833333" stroke-linecap="round" stroke-linejoin="round"/>
<path d="M20.0832 28.225H10.8849C10.6324 28.225 10.3823 28.1752 10.149 28.0786C9.9157 27.9819 9.70373 27.8402 9.5252 27.6616C9.34666 27.483 9.20507 27.271 9.1085 27.0376C9.01194 26.8043 8.96229 26.5542 8.9624 26.3017V5.6725C8.9624 5.16262 9.16495 4.67363 9.52549 4.31309C9.88603 3.95255 10.375 3.75 10.8849 3.75H23.7516C24.2614 3.75 24.7504 3.95255 25.111 4.31309C25.4715 4.67363 25.6741 5.16262 25.6741 5.6725V24.5542M8.9624 7.22667H25.6741M8.9624 24.7475H18.2849" stroke="#0872A2" stroke-linecap="round" stroke-linejoin="round"/>
<path d="M22.0581 16.6235C22.4033 16.6235 22.6831 16.3437 22.6831 15.9985C22.6831 15.6534 22.4033 15.3735 22.0581 15.3735C21.7129 15.3735 21.4331 15.6534 21.4331 15.9985C21.4331 16.3437 21.7129 16.6235 22.0581 16.6235Z" fill="#0872A2"/>
<path d="M19.0266 16.6235C19.3718 16.6235 19.6516 16.3437 19.6516 15.9985C19.6516 15.6534 19.3718 15.3735 19.0266 15.3735C18.6814 15.3735 18.4016 15.6534 18.4016 15.9985C18.4016 16.3437 18.6814 16.6235 19.0266 16.6235Z" fill="#0872A2"/>
<path d="M15.9961 16.6235C16.3413 16.6235 16.6211 16.3437 16.6211 15.9985C16.6211 15.6534 16.3413 15.3735 15.9961 15.3735C15.6509 15.3735 15.3711 15.6534 15.3711 15.9985C15.3711 16.3437 15.6509 16.6235 15.9961 16.6235Z" fill="#0872A2"/>
</svg>
