<svg width="16" height="17" viewBox="0 0 16 17" fill="none" xmlns="http://www.w3.org/2000/svg">
<path d="M6.5 1.5V3.5L5.5 4L4 2.5L2 4.5L3.5 6L3 7H1V10H3L3.5 11L2 12.5L4 14.5L5.5 13L6.5 13.5V15.5H9.5V13.5L10.5 13L12 14.5L14 12.5L12.5 11L13 10H15V7H13L12.5 6L14 4.5L12 2.5L10.5 4L9.5 3.5V1.5H6.5Z" stroke="#A2A0A0" stroke-linecap="round" stroke-linejoin="round"/>
<path d="M8 10.5C9.10457 10.5 10 9.60457 10 8.5C10 7.39543 9.10457 6.5 8 6.5C6.89543 6.5 6 7.39543 6 8.5C6 9.60457 6.89543 10.5 8 10.5Z" stroke="#A2A0A0" stroke-linecap="round" stroke-linejoin="round"/>
</svg>
