<svg width="14" height="15" viewBox="0 0 14 15" fill="none" xmlns="http://www.w3.org/2000/svg">
<g clip-path="url(#clip0_67_1890)">
<path d="M9.8 14.024V14.4907H10.2667V14.024H9.8ZM0.466667 14.024H0V14.4907H0.466667V14.024ZM13.5333 14.0333V14.5H14V14.0333H13.5333ZM7.46667 3.7648C7.46654 4.0711 7.40609 4.37437 7.28877 4.6573C7.17144 4.94023 6.99953 5.19729 6.78286 5.41378C6.56619 5.63028 6.309 5.80198 6.02598 5.91908C5.74295 6.03618 5.43963 6.09639 5.13333 6.09627V7.0296C6.93747 7.0296 8.4 5.568 8.4 3.7648H7.46667ZM5.13333 6.09627C4.82704 6.09639 4.52372 6.03618 4.24069 5.91908C3.95766 5.80198 3.70047 5.63028 3.4838 5.41378C3.26713 5.19729 3.09523 4.94023 2.9779 4.6573C2.86057 4.37437 2.80012 4.0711 2.8 3.7648H1.86667C1.86679 4.19366 1.95138 4.6183 2.11561 5.01447C2.27984 5.41064 2.5205 5.77058 2.82384 6.07375C3.12718 6.37691 3.48726 6.61736 3.88352 6.78137C4.27978 6.94537 4.70447 7.02972 5.13333 7.0296V6.09627ZM2.8 3.7648C2.80012 3.4585 2.86057 3.15523 2.9779 2.8723C3.09523 2.58937 3.26713 2.33231 3.4838 2.11582C3.70047 1.89932 3.95766 1.72762 4.24069 1.61052C4.52372 1.49342 4.82704 1.43321 5.13333 1.43333V0.5C4.70447 0.499878 4.27978 0.584227 3.88352 0.748232C3.48726 0.912237 3.12718 1.15269 2.82384 1.45585C2.5205 1.75902 2.27984 2.11896 2.11561 2.51513C1.95138 2.9113 1.86679 3.33594 1.86667 3.7648H2.8ZM5.13333 1.43333C5.75185 1.43333 6.34506 1.67891 6.78259 2.11609C7.22012 2.55327 7.46617 3.14629 7.46667 3.7648H8.4C8.39988 3.33594 8.31529 2.9113 8.15105 2.51513C7.98682 2.11896 7.74617 1.75902 7.44283 1.45585C7.13949 1.15269 6.77941 0.912237 6.38315 0.748232C5.98688 0.584227 5.5622 0.499878 5.13333 0.5V1.43333ZM9.8 13.5573H0.466667V14.4907H9.8V13.5573ZM0.933333 14.024V12.162H0V14.024H0.933333ZM3.26667 9.82773H7V8.8944H3.26667V9.82773ZM9.33333 12.1611V14.024H10.2667V12.1611H9.33333ZM7 9.82773C7.61884 9.82773 8.21233 10.0736 8.64992 10.5112C9.0875 10.9487 9.33333 11.5422 9.33333 12.1611H10.2667C10.2667 11.2947 9.9225 10.4638 9.30988 9.85118C8.69726 9.23857 7.86637 8.8944 7 8.8944V9.82773ZM0.933333 12.1611C0.933333 11.5422 1.17917 10.9487 1.61675 10.5112C2.05434 10.0736 2.64783 9.82773 3.26667 9.82773V8.8944C2.40029 8.8944 1.5694 9.23857 0.956784 9.85118C0.344166 10.4638 0 11.2947 0 12.1611H0.933333ZM13.0667 12.6333V14.0333H14V12.6333H13.0667ZM13.5333 13.5667H11.2V14.5H13.5333V13.5667ZM11.2 10.7667C11.6951 10.7667 12.1699 10.9633 12.5199 11.3134C12.87 11.6635 13.0667 12.1383 13.0667 12.6333H14C14 11.8907 13.705 11.1785 13.1799 10.6534C12.6548 10.1283 11.9426 9.83333 11.2 9.83333V10.7667ZM10.7333 7.96667C10.362 7.96667 10.0059 7.81917 9.74338 7.55662C9.48083 7.29407 9.33333 6.93797 9.33333 6.56667H8.4C8.4 7.18551 8.64583 7.779 9.08342 8.21658C9.521 8.65417 10.1145 8.9 10.7333 8.9V7.96667ZM12.1333 6.56667C12.1333 6.93797 11.9858 7.29407 11.7233 7.55662C11.4607 7.81917 11.1046 7.96667 10.7333 7.96667V8.9C11.3522 8.9 11.9457 8.65417 12.3832 8.21658C12.8208 7.779 13.0667 7.18551 13.0667 6.56667H12.1333ZM10.7333 5.16667C11.1046 5.16667 11.4607 5.31417 11.7233 5.57672C11.9858 5.83927 12.1333 6.19536 12.1333 6.56667H13.0667C13.0667 5.94783 12.8208 5.35434 12.3832 4.91675C11.9457 4.47917 11.3522 4.23333 10.7333 4.23333V5.16667ZM10.7333 4.23333C10.1145 4.23333 9.521 4.47917 9.08342 4.91675C8.64583 5.35434 8.4 5.94783 8.4 6.56667H9.33333C9.33333 6.19536 9.48083 5.83927 9.74338 5.57672C10.0059 5.31417 10.362 5.16667 10.7333 5.16667V4.23333Z" fill="#A2A0A0"/>
</g>
<defs>
<clipPath id="clip0_67_1890">
<rect width="14" height="14" fill="white" transform="translate(0 0.5)"/>
</clipPath>
</defs>
</svg>
